<svg xmlns="http://www.w3.org/2000/svg" viewBox="0 0 65 95">
    <g fill="none" fill-rule="evenodd">
        <path stroke="#FFF" stroke-width="1.944" d="M16.611 22.998l.282 13.72 7.132 9.464 4.94 2.058h5.213l5.076-1.783 7.681-9.465.273-16.191"/>
        <path stroke="#FFF" stroke-width="1.944" d="M24.025 46.182v5.626l8.087 11.664 7.553-11.664V45.77"/>
        <path stroke="#FFF" stroke-width="1.944" d="M23.89 51.258l-18.527 5.08-5.35 6.448.823 31.002 62.417-.002.413-32.922-5.076-5.348-18.925-3.708M53.246 67.172v26.475M11.543 66.623v27.574M16.016 21.858L47.41 21.7l1.531-.904v-2.87l-1.601-1.509-31.277.068-1.509 1.784v2.128z"/>
        <path stroke="#FFF" stroke-width="1.944" d="M47.27 16.556s1.031-6.77-1.987-9.234c-3.018-2.464-9.603-4.848-9.603-4.848l.639 2.469-11.156-4.7.456 3.7L13.73 0s.457 14.315 2.47 16.37"/>
        <ellipse cx="44.826" cy="69.18" stroke="#FFF" stroke-width="1.215" rx="2.33" ry="2.143"/>
        <path fill="#FFF" fill-rule="nonzero" d="M21.72 64.244h2.531v7.703H21.72v-1.1l.221-2.43h-.109l-1.419 3.53H17.87v-7.703h2.542v1.101l-.221 2.43h.112z"/>
    </g>
</svg>
