<svg xmlns="http://www.w3.org/2000/svg" width="48" height="33" viewBox="0 0 48 33">
    <g fill="none" fill-rule="evenodd">
        <path fill="#000" fill-rule="nonzero" d="M0 0h48v33H0z"/>
        <path fill="#FFF" d="M21 12.816c0 3.25-.767 5.99-2.302 8.217C17.164 23.261 14.931 24.916 12 26v-2.817c3.462-1.349 5.193-3.372 5.193-6.069 0-.506-.147-.933-.442-1.282-.295-.35-.817-.765-1.564-1.246-1.318-.843-1.977-2.047-1.977-3.613 0-1.3.334-2.287 1.003-2.962C14.882 7.337 15.728 7 16.751 7c1.259 0 2.282.548 3.069 1.644.787 1.095 1.18 2.486 1.18 4.172zm16 0c0 3.25-.767 5.99-2.302 8.217C33.164 23.261 30.931 24.916 28 26v-2.817c3.462-1.349 5.193-3.372 5.193-6.069 0-.506-.147-.933-.442-1.282-.295-.35-.817-.765-1.564-1.246-1.318-.843-1.977-2.047-1.977-3.613 0-1.3.334-2.287 1.003-2.962C30.882 7.337 31.728 7 32.751 7c1.259 0 2.282.548 3.069 1.644.787 1.095 1.18 2.486 1.18 4.172z"/>
    </g>
</svg>
