<svg xmlns="http://www.w3.org/2000/svg" viewBox="0 0 32 32">
    <g fill="#FFF" fill-rule="nonzero">
        <path d="M10.497 31.029C4.372 28.785 0 22.903 0 16 0 7.163 7.163 0 16 0c6.877 0 12.741 4.34 15.004 10.43-1.016 1.46-2.694 2.365-4.599 2.365-2.277 0-4.364-1.518-5.123-3.795-1.518.38-2.846.949-4.174 1.708.948 2.087.759 4.743-.949 6.451-1.708 1.708-4.364 1.897-6.451.949-.76 1.328-1.329 2.656-1.708 4.174 2.277.759 3.795 2.846 3.795 5.123a5.6 5.6 0 0 1-1.298 3.624z"/>
        <path d="M31.215 20.963a16.03 16.03 0 0 1-11.65 10.638 8.265 8.265 0 0 1-1.13-4.196c0-4.364 3.606-7.97 7.97-7.97 1.809 0 3.467.57 4.81 1.528z"/>
    </g>
</svg>
